<svg xmlns="http://www.w3.org/2000/svg" xmlns:xlink="http://www.w3.org/1999/xlink" width="455" height="455" fill="none"><g fill-rule="evenodd"><path d="M455 227.5C455 353.145 353.145 455 227.5 455c-27.089 0-53.072-4.735-77.167-13.421v-147.01c28.849 25.423 66.722 40.845 108.197 40.845 90.419 0 163.718-73.299 163.718-163.718 0-58.599-30.786-110.008-77.067-138.934C411.007 72.627 455 144.926 455 227.5m-306.091 65.8v147.76C61.992 409.064 0 325.522 0 227.5 0 101.855 101.855 0 227.5 0c37.21 0 72.333 8.933 103.342 24.772-21.807-10.753-46.354-16.795-72.312-16.795-90.42 0-163.719 73.3-163.719 163.719 0 48.258 20.88 91.64 54.098 121.604" fill="url(#A)"/><path d="M227.5 455C353.145 455 455 353.145 455 227.5c0-82.574-43.993-154.873-109.819-194.738 46.281 28.926 77.067 80.335 77.067 138.934 0 90.419-73.299 163.718-163.718 163.718S94.811 262.115 94.811 171.696 168.11 7.977 258.53 7.977c25.958 0 50.505 6.042 72.312 16.795C299.833 8.933 264.71 0 227.5 0 101.855 0 0 101.855 0 227.5S101.855 455 227.5 455" fill="url(#A)"/><path opacity=".8" d="M52.722 300.967C41.326 275.066 35 246.428 35 216.311 35 100.159 129.099 6 245.177 6A211.53 211.53 0 0 1 278 8.55a166 166 0 0 0-19.287-1.124c-90.501 0-163.866 73.412-163.866 163.971 0 22.472 4.517 43.887 12.693 63.387L55.661 304z" fill="url(#B)"/><path d="M55.1 306.466c-12.989-27.351-20.258-57.961-20.258-90.273 0-115.61 93.064-209.42 208.158-210.188A213 213 0 0 0 241.581 6C125.833 6 32 100.107 32 216.193c0 33.314 7.727 64.818 21.483 92.807z" fill="url(#C)"/><path d="M240.011 419C353.776 419 446 326.507 446 212.41c0-61.957-27.195-117.544-70.267-155.41 28.544 29.5 46.117 69.738 46.117 114.092 0 90.49-73.144 163.847-163.371 163.847-23.918 0-46.635-5.155-67.108-14.417l-7.618 27.088-9.234 43.455L173 407.822C194.008 415.067 216.552 419 240.011 419" fill="url(#D)"/><path d="M197.114 323q2.916 1.177 5.886 2.245c-10.977 34.779-16.895 71.785-16.895 110.166q0 1.796.017 3.589A333 333 0 0 1 185 411.665c0-30.716 4.22-60.451 12.114-88.665M42 335c15.306-38.862 37.347-74.34 64.688-105a163 163 0 0 0 3.312 7.818C82.623 266.367 59.601 299.116 42 335" fill="#161616"/><path d="M184.802 410.953c0-55.485 13.832-107.745 38.241-153.533a327.5 327.5 0 0 1 27.837-43.539c16.618-21.293 33.933-32.191 39.91-34.973 9.926-4.62 11.814 2.754 11.518 7.019 5.735-6.338 15.376-21.462 8.053-31.259-8.441-11.292-28.698-5.388-37.521-2.816l-.964.28a58.5 58.5 0 0 0-18.638-3.028c-5.498 0-10.819.758-15.864 2.174a241 241 0 0 0-73.338 29.273l-9.172 5.553 22.301-3.571C115.015 222.925 65.299 280.777 35 349.12c33.604 52.646 88.313 90.564 152.232 101.88a330 330 0 0 1-2.43-40.047" fill="url(#E)"/><path d="M285 182c-83.223 57.013-146.43 140.853-177 238.967A227.8 227.8 0 0 0 187.347 451a329 329 0 0 1-2.437-40.022c0-55.449 13.871-107.676 38.351-153.434a327 327 0 0 1 27.919-43.515c12.62-16.111 25.639-26.267 33.82-31.456z" fill="url(#F)"/><path d="M105 419.245c32.011-99.026 97.408-183.15 183-239.245-84.801 56.955-149.241 141.648-180.178 241a233 233 0 0 1-2.822-1.755" fill="url(#G)"/><path d="M187 412.111c16.905 4.494 34.663 6.889 52.979 6.889C353.761 419 446 326.576 446 212.566c0-33.682-8.05-65.479-22.328-93.566 13.39 27.381 20.907 58.168 20.907 90.715 0 114.011-92.239 206.435-206.022 206.435-17.623 0-34.729-2.218-51.056-6.389z" fill="url(#H)"/></g><path d="M250.001 155.522c-5.233-.481-11.988 2.634-14.711 4.252 4.655-.085 9.483 1.317 15.137 3.375 4.524 1.647 11.845-2.567 14.94-4.88-2.942-.715-10.134-2.265-15.366-2.747" fill="#161616"/><defs><linearGradient id="A" x1="149.289" y1="-19.706" x2="84.983" y2="327.609" xlink:href="#I"><stop stop-color="#bc9516"/><stop offset="1" stop-color="#ead469"/></linearGradient><linearGradient id="B" x1="124.382" y1="13.591" x2="76.095" y2="136.087" xlink:href="#I"><stop stop-color="#94660a"/><stop offset="1" stop-color="#94660a" stop-opacity=".4"/></linearGradient><linearGradient id="C" x1="137.5" y1="6" x2="137.5" y2="309" xlink:href="#I"><stop stop-color="#f8e870"/><stop offset="1" stop-color="#f8e870" stop-opacity="0"/></linearGradient><linearGradient id="D" x1="353.895" y1="45.711" x2="148.307" y2="359.003" xlink:href="#I"><stop stop-color="#94660a"/><stop offset="1" stop-color="#94660a" stop-opacity=".3"/></linearGradient><linearGradient id="E" x1="149.271" y1="149.567" x2="165.599" y2="451.296" xlink:href="#I"><stop stop-color="#bb9426"/><stop offset="1" stop-color="#fef187"/></linearGradient><linearGradient id="F" x1="301.175" y1="163.801" x2="188.418" y2="431.229" xlink:href="#I"><stop stop-color="#94660a"/><stop offset="1" stop-color="#94660a" stop-opacity=".46"/></linearGradient><linearGradient id="G" x1="171.502" y1="170.652" x2="95.535" y2="257.226" xlink:href="#I"><stop stop-color="#f8e870"/><stop offset="1" stop-color="#f8e870" stop-opacity="0"/></linearGradient><linearGradient id="H" x1="439.606" y1="157.036" x2="28.287" y2="509.296" xlink:href="#I"><stop stop-color="#f8e870"/><stop offset="1" stop-color="#f8e870" stop-opacity="0"/></linearGradient><linearGradient id="I" gradientUnits="userSpaceOnUse"/></defs></svg>